<svg width="46" height="42" viewBox="0 0 46 42" fill="none" xmlns="http://www.w3.org/2000/svg">
<path d="M9.63945 10.5C9.79236 9.6824 10.0707 8.8758 10.4737 8.09748C11.1228 6.84388 12.0868 5.68086 13.3303 4.68602C14.5742 3.69087 16.0677 2.88862 17.7314 2.3373C19.395 1.78606 21.1859 1.5 22.9999 1.5C24.8138 1.5 26.6048 1.78607 28.2683 2.33731C29.9321 2.88863 31.4255 3.69087 32.6694 4.68602C33.913 5.68086 34.8769 6.84389 35.526 8.09749C35.929 8.8758 36.2074 9.68241 36.3603 10.5L22.9999 10.5L15.4077 10.5L9.63945 10.5Z" stroke="#000000" stroke-width="3"/>
<rect x="2" y="12" width="42" height="28" rx="3" stroke="#000000" stroke-width="4"/>
</svg>
