<svg width="48" height="45" viewBox="0 0 48 45" fill="none" xmlns="http://www.w3.org/2000/svg">
<path d="M24.24 38.1335L24 38.3787L23.736 38.1335C12.336 27.564 4.8 20.5749 4.8 13.4877C4.8 8.58311 8.4 4.90463 13.2 4.90463C16.896 4.90463 20.496 7.35695 21.768 10.6921H26.232C27.504 7.35695 31.104 4.90463 34.8 4.90463C39.6 4.90463 43.2 8.58311 43.2 13.4877C43.2 20.5749 35.664 27.564 24.24 38.1335ZM34.8 0C30.624 0 26.616 1.98638 24 5.10082C21.384 1.98638 17.376 0 13.2 0C5.808 0 0 5.91008 0 13.4877C0 22.733 8.16 30.3106 20.52 41.7629L24 45L27.48 41.7629C39.84 30.3106 48 22.733 48 13.4877C48 5.91008 42.192 0 34.8 0Z" fill="#000000"/>
</svg>
